# Blender v2.79 (sub 0) OBJ File: ''
# www.blender.org
v 0.000000 -1.000000 -1.000000
v 0.781832 -1.000000 -0.623490
v 0.974928 -1.000000 0.222521
v 0.433884 -1.000000 0.900969
v 0.000000 1.000000 0.000000
v -0.433884 -1.000000 0.900969
v -0.974928 -1.000000 0.222521
v -0.781832 -1.000000 -0.623490
vn 0.3956 0.4107 -0.8215
vn 0.8889 0.4107 -0.2029
vn 0.7128 0.4107 0.5685
vn -0.0000 0.4107 0.9118
vn -0.7128 0.4107 0.5685
vn -0.8889 0.4107 -0.2029
vn -0.3956 0.4107 -0.8215
vn 0.0000 -1.0000 0.0000
s off
f 1//1 5//1 2//1
f 2//2 5//2 3//2
f 3//3 5//3 4//3
f 4//4 5//4 6//4
f 6//5 5//5 7//5
f 7//6 5//6 8//6
f 8//7 5//7 1//7
f 7//8 8//8 2//8
f 8//8 1//8 2//8
f 2//8 3//8 7//8
f 3//8 4//8 7//8
f 4//8 6//8 7//8
