# Blender v2.79 (sub 0) OBJ File: ''
# www.blender.org
v 0.000000 -1.000000 -1.000000
v 0.000000 1.000000 -1.000000
v 0.258819 -1.000000 -0.965926
v 0.258819 1.000000 -0.965926
v 0.500000 -1.000000 -0.866025
v 0.500000 1.000000 -0.866025
v 0.707107 -1.000000 -0.707107
v 0.707107 1.000000 -0.707107
v 0.866025 -1.000000 -0.500000
v 0.866025 1.000000 -0.500000
v 0.965926 -1.000000 -0.258819
v 0.965926 1.000000 -0.258819
v 1.000000 -1.000000 -0.000000
v 1.000000 1.000000 -0.000000
v 0.965926 -1.000000 0.258819
v 0.965926 1.000000 0.258819
v 0.866026 -1.000000 0.500000
v 0.866026 1.000000 0.500000
v 0.707107 -1.000000 0.707107
v 0.707107 1.000000 0.707107
v 0.500000 -1.000000 0.866025
v 0.500000 1.000000 0.866025
v 0.258819 -1.000000 0.965926
v 0.258819 1.000000 0.965926
v 0.000000 -1.000000 1.000000
v 0.000000 1.000000 1.000000
v -0.258819 -1.000000 0.965926
v -0.258819 1.000000 0.965926
v -0.500000 -1.000000 0.866026
v -0.500000 1.000000 0.866026
v -0.707106 -1.000000 0.707107
v -0.707106 1.000000 0.707107
v -0.866025 -1.000000 0.500000
v -0.866025 1.000000 0.500000
v -0.965926 -1.000000 0.258819
v -0.965926 1.000000 0.258819
v -1.000000 -1.000000 0.000000
v -1.000000 1.000000 0.000000
v -0.965926 -1.000000 -0.258819
v -0.965926 1.000000 -0.258819
v -0.866026 -1.000000 -0.499999
v -0.866026 1.000000 -0.499999
v -0.707107 -1.000000 -0.707106
v -0.707107 1.000000 -0.707106
v -0.500001 -1.000000 -0.866025
v -0.500001 1.000000 -0.866025
v -0.258820 -1.000000 -0.965926
v -0.258820 1.000000 -0.965926
vn 0.1305 0.0000 -0.9914
vn 0.3827 0.0000 -0.9239
vn 0.6088 0.0000 -0.7934
vn 0.7934 0.0000 -0.6088
vn 0.9239 0.0000 -0.3827
vn 0.9914 0.0000 -0.1305
vn 0.9914 0.0000 0.1305
vn 0.9239 0.0000 0.3827
vn 0.7934 0.0000 0.6088
vn 0.6088 0.0000 0.7934
vn 0.3827 0.0000 0.9239
vn 0.1305 0.0000 0.9914
vn -0.1305 0.0000 0.9914
vn -0.3827 0.0000 0.9239
vn -0.6088 0.0000 0.7934
vn -0.7934 0.0000 0.6088
vn -0.9239 0.0000 0.3827
vn -0.9914 0.0000 0.1305
vn -0.9914 0.0000 -0.1305
vn -0.9239 0.0000 -0.3827
vn -0.7934 0.0000 -0.6088
vn -0.6088 0.0000 -0.7934
vn 0.0000 1.0000 0.0000
vn -0.3827 0.0000 -0.9239
vn -0.1305 0.0000 -0.9914
vn 0.0000 -1.0000 0.0000
s off
f 2//1 3//1 1//1
f 4//2 5//2 3//2
f 6//3 7//3 5//3
f 8//4 9//4 7//4
f 10//5 11//5 9//5
f 12//6 13//6 11//6
f 14//7 15//7 13//7
f 16//8 17//8 15//8
f 18//9 19//9 17//9
f 20//10 21//10 19//10
f 22//11 23//11 21//11
f 24//12 25//12 23//12
f 26//13 27//13 25//13
f 28//14 29//14 27//14
f 30//15 31//15 29//15
f 32//16 33//16 31//16
f 34//17 35//17 33//17
f 36//18 37//18 35//18
f 38//19 39//19 37//19
f 40//20 41//20 39//20
f 42//21 43//21 41//21
f 44//22 45//22 43//22
f 14//23 6//23 38//23
f 46//24 47//24 45//24
f 48//25 1//25 47//25
f 23//26 31//26 47//26
f 2//1 4//1 3//1
f 4//2 6//2 5//2
f 6//3 8//3 7//3
f 8//4 10//4 9//4
f 10//5 12//5 11//5
f 12//6 14//6 13//6
f 14//7 16//7 15//7
f 16//8 18//8 17//8
f 18//9 20//9 19//9
f 20//10 22//10 21//10
f 22//11 24//11 23//11
f 24//12 26//12 25//12
f 26//13 28//13 27//13
f 28//14 30//14 29//14
f 30//15 32//15 31//15
f 32//16 34//16 33//16
f 34//17 36//17 35//17
f 36//18 38//18 37//18
f 38//19 40//19 39//19
f 40//20 42//20 41//20
f 42//21 44//21 43//21
f 44//22 46//22 45//22
f 6//23 4//23 2//23
f 2//23 48//23 6//23
f 48//23 46//23 6//23
f 46//23 44//23 42//23
f 42//23 40//23 38//23
f 38//23 36//23 30//23
f 36//23 34//23 30//23
f 34//23 32//23 30//23
f 30//23 28//23 26//23
f 26//23 24//23 30//23
f 24//23 22//23 30//23
f 22//23 20//23 14//23
f 20//23 18//23 14//23
f 18//23 16//23 14//23
f 14//23 12//23 10//23
f 10//23 8//23 14//23
f 8//23 6//23 14//23
f 46//23 42//23 38//23
f 6//23 46//23 38//23
f 38//23 30//23 22//23
f 22//23 14//23 38//23
f 46//24 48//24 47//24
f 48//25 2//25 1//25
f 47//26 1//26 7//26
f 1//26 3//26 7//26
f 3//26 5//26 7//26
f 7//26 9//26 11//26
f 11//26 13//26 15//26
f 15//26 17//26 19//26
f 19//26 21//26 23//26
f 23//26 25//26 27//26
f 27//26 29//26 31//26
f 31//26 33//26 35//26
f 35//26 37//26 39//26
f 39//26 41//26 43//26
f 43//26 45//26 47//26
f 7//26 11//26 15//26
f 15//26 19//26 23//26
f 23//26 27//26 31//26
f 31//26 35//26 47//26
f 35//26 39//26 47//26
f 39//26 43//26 47//26
f 47//26 7//26 15//26
f 15//26 23//26 47//26
