# Blender v2.79 (sub 0) OBJ File: ''
# www.blender.org
v 0.167067 0.951057 -0.259962
v 0.317781 0.809017 -0.494476
v 0.437388 0.587785 -0.680588
v 0.514180 0.309017 -0.800080
v 0.540641 -0.000000 -0.841253
v 0.514180 -0.309017 -0.800080
v 0.437388 -0.587785 -0.680588
v 0.317781 -0.809017 -0.494476
v 0.167067 -0.951057 -0.259961
v 0.281092 0.951057 -0.128370
v 0.534669 0.809017 -0.244175
v 0.735908 0.587785 -0.336078
v 0.865112 0.309017 -0.395083
v 0.909632 -0.000000 -0.415415
v 0.865112 -0.309017 -0.395083
v 0.735908 -0.587785 -0.336078
v 0.534668 -0.809017 -0.244175
v 0.281092 -0.951057 -0.128370
v 0.305872 0.951057 0.043978
v 0.581803 0.809017 0.083651
v 0.800783 0.587785 0.115135
v 0.941376 0.309017 0.135350
v 0.989822 -0.000000 0.142315
v 0.941376 -0.309017 0.135350
v 0.800783 -0.587785 0.115135
v 0.581803 -0.809017 0.083651
v 0.305872 -0.951057 0.043978
v 0.233540 0.951057 0.202364
v 0.444219 0.809017 0.384918
v 0.611414 0.587785 0.529794
v 0.718761 0.309017 0.622810
v 0.755750 -0.000000 0.654861
v 0.718761 -0.309017 0.622810
v 0.611414 -0.587785 0.529794
v 0.444219 -0.809017 0.384918
v 0.233540 -0.951057 0.202363
v 0.087060 0.951057 0.296500
v 0.165598 0.809017 0.563976
v 0.227927 0.587785 0.776247
v 0.267944 0.309017 0.912532
v 0.281733 -0.000000 0.959493
v 0.267944 -0.309017 0.912532
v 0.227927 -0.587785 0.776247
v 0.165598 -0.809017 0.563976
v 0.087060 -0.951057 0.296500
v -0.087060 0.951057 0.296500
v -0.165598 0.809017 0.563976
v -0.227926 0.587785 0.776247
v -0.267943 0.309017 0.912532
v -0.281732 -0.000000 0.959493
v -0.267943 -0.309017 0.912532
v -0.227926 -0.587785 0.776247
v -0.165598 -0.809017 0.563976
v -0.087060 -0.951057 0.296500
v -0.233540 0.951057 0.202364
v -0.444219 0.809017 0.384918
v -0.611414 0.587785 0.529794
v -0.718760 0.309017 0.622810
v -0.755750 -0.000000 0.654861
v -0.718760 -0.309017 0.622810
v -0.611414 -0.587785 0.529794
v -0.444218 -0.809017 0.384918
v -0.233539 -0.951057 0.202363
v 0.000000 -1.000000 0.000000
v -0.000000 1.000000 0.000000
v -0.305872 0.951057 0.043978
v -0.581803 0.809017 0.083651
v -0.800783 0.587785 0.115136
v -0.941376 0.309017 0.135350
v -0.989821 -0.000000 0.142315
v -0.941376 -0.309017 0.135350
v -0.800783 -0.587785 0.115136
v -0.581802 -0.809017 0.083651
v -0.305872 -0.951057 0.043978
v -0.281092 0.951057 -0.128370
v -0.534669 0.809017 -0.244174
v -0.735908 0.587785 -0.336077
v -0.865111 0.309017 -0.395083
v -0.909632 -0.000000 -0.415414
v -0.865111 -0.309017 -0.395083
v -0.735908 -0.587785 -0.336077
v -0.534668 -0.809017 -0.244174
v -0.281092 -0.951057 -0.128370
v -0.167067 0.951057 -0.259961
v -0.317781 0.809017 -0.494476
v -0.437388 0.587785 -0.680588
v -0.514180 0.309017 -0.800079
v -0.540641 -0.000000 -0.841253
v -0.514180 -0.309017 -0.800079
v -0.437388 -0.587785 -0.680588
v -0.317781 -0.809017 -0.494476
v -0.167067 -0.951057 -0.259961
v -0.000000 0.951057 -0.309017
v -0.000000 0.809017 -0.587785
v -0.000000 0.587785 -0.809017
v -0.000000 0.309017 -0.951056
v -0.000000 -0.000000 -1.000000
v -0.000000 -0.309017 -0.951056
v -0.000000 -0.587785 -0.809017
v -0.000000 -0.809017 -0.587785
v -0.000000 -0.951057 -0.309017
vn 0.1321 -0.8832 -0.4500
vn 0.2785 -0.1502 -0.9486
vn 0.2033 0.6923 -0.6923
vn 0.0459 -0.9866 -0.1563
vn 0.2531 -0.4392 -0.8620
vn 0.2531 0.4392 -0.8620
vn 0.0459 0.9866 -0.1563
vn 0.2033 -0.6923 -0.6923
vn 0.2785 0.1502 -0.9486
vn 0.1321 0.8832 -0.4500
vn 0.7472 -0.1502 -0.6474
vn 0.5453 0.6923 -0.4725
vn 0.1231 -0.9866 -0.1067
vn 0.6790 -0.4392 -0.5883
vn 0.6790 0.4392 -0.5883
vn 0.1231 0.9866 -0.1067
vn 0.5453 -0.6923 -0.4725
vn 0.7472 0.1502 -0.6474
vn 0.3545 0.8832 -0.3071
vn 0.3545 -0.8832 -0.3071
vn 0.4642 0.8832 -0.0667
vn 0.4642 -0.8832 -0.0667
vn 0.9786 -0.1502 -0.1407
vn 0.7142 0.6923 -0.1027
vn 0.1612 -0.9866 -0.0232
vn 0.8892 -0.4392 -0.1279
vn 0.8892 0.4392 -0.1279
vn 0.1612 0.9866 -0.0232
vn 0.7142 -0.6923 -0.1027
vn 0.9786 0.1502 -0.1407
vn 0.6564 -0.6923 0.2998
vn 0.8993 0.1502 0.4107
vn 0.4266 0.8832 0.1948
vn 0.4266 -0.8832 0.1948
vn 0.8993 -0.1502 0.4107
vn 0.6564 0.6923 0.2998
vn 0.1481 -0.9866 0.0677
vn 0.8172 -0.4392 0.3732
vn 0.8172 0.4392 0.3732
vn 0.1481 0.9866 0.0677
vn 0.4857 0.4392 0.7558
vn 0.0881 0.9866 0.1370
vn 0.3901 -0.6923 0.6070
vn 0.5345 0.1502 0.8317
vn 0.2536 0.8832 0.3946
vn 0.2536 -0.8832 0.3946
vn 0.5345 -0.1502 0.8317
vn 0.3901 0.6923 0.6070
vn 0.0881 -0.9866 0.1370
vn 0.4857 -0.4392 0.7558
vn 0.0000 -0.4392 0.8984
vn 0.0000 0.4392 0.8984
vn 0.0000 0.9866 0.1629
vn 0.0000 -0.6923 0.7216
vn 0.0000 0.1502 0.9886
vn 0.0000 0.8832 0.4690
vn 0.0000 -0.8832 0.4690
vn 0.0000 -0.1502 0.9886
vn 0.0000 0.6923 0.7216
vn 0.0000 -0.9866 0.1629
vn -0.3901 0.6923 0.6070
vn -0.0881 -0.9866 0.1370
vn -0.4857 -0.4392 0.7558
vn -0.4857 0.4392 0.7558
vn -0.0881 0.9866 0.1370
vn -0.3901 -0.6923 0.6070
vn -0.5345 0.1502 0.8317
vn -0.2536 0.8832 0.3946
vn -0.2536 -0.8832 0.3946
vn -0.5345 -0.1502 0.8317
vn -0.4266 -0.8832 0.1948
vn -0.8993 -0.1502 0.4107
vn -0.6564 0.6923 0.2998
vn -0.1481 -0.9866 0.0677
vn -0.8172 -0.4392 0.3732
vn -0.8172 0.4392 0.3732
vn -0.1481 0.9866 0.0677
vn -0.6564 -0.6923 0.2998
vn -0.8993 0.1502 0.4107
vn -0.4266 0.8832 0.1948
vn -0.9786 0.1502 -0.1407
vn -0.4642 0.8832 -0.0667
vn -0.4642 -0.8832 -0.0667
vn -0.9786 -0.1502 -0.1407
vn -0.7142 0.6923 -0.1027
vn -0.1612 -0.9866 -0.0232
vn -0.8892 -0.4392 -0.1279
vn -0.8892 0.4392 -0.1279
vn -0.1612 0.9866 -0.0232
vn -0.7142 -0.6923 -0.1027
vn -0.1231 0.9866 -0.1067
vn -0.5453 -0.6923 -0.4725
vn -0.7472 0.1502 -0.6474
vn -0.3545 0.8832 -0.3071
vn -0.3545 -0.8832 -0.3071
vn -0.7472 -0.1502 -0.6474
vn -0.5453 0.6923 -0.4725
vn -0.1231 -0.9866 -0.1067
vn -0.6790 -0.4392 -0.5883
vn -0.6790 0.4392 -0.5883
vn -0.2531 0.4392 -0.8620
vn -0.0459 0.9866 -0.1563
vn -0.2033 -0.6923 -0.6923
vn -0.2785 0.1502 -0.9486
vn -0.1321 0.8832 -0.4500
vn -0.1321 -0.8832 -0.4500
vn -0.2785 -0.1502 -0.9486
vn -0.2033 0.6923 -0.6923
vn -0.0459 -0.9866 -0.1563
vn -0.2531 -0.4392 -0.8620
s off
f 100//1 9//1 101//1
f 98//2 5//2 6//2
f 95//3 2//3 3//3
f 64//4 101//4 9//4
f 98//5 7//5 99//5
f 96//6 3//6 4//6
f 93//7 65//7 1//7
f 99//8 8//8 100//8
f 97//9 4//9 5//9
f 94//10 1//10 2//10
f 5//11 15//11 6//11
f 2//12 12//12 3//12
f 64//13 9//13 18//13
f 7//14 15//14 16//14
f 3//15 13//15 4//15
f 1//16 65//16 10//16
f 7//17 17//17 8//17
f 4//18 14//18 5//18
f 1//19 11//19 2//19
f 9//20 17//20 18//20
f 11//21 19//21 20//21
f 17//22 27//22 18//22
f 14//23 24//23 15//23
f 11//24 21//24 12//24
f 64//25 18//25 27//25
f 16//26 24//26 25//26
f 13//27 21//27 22//27
f 10//28 65//28 19//28
f 16//29 26//29 17//29
f 13//30 23//30 14//30
f 25//31 35//31 26//31
f 23//32 31//32 32//32
f 19//33 29//33 20//33
f 26//34 36//34 27//34
f 23//35 33//35 24//35
f 21//36 29//36 30//36
f 64//37 27//37 36//37
f 24//38 34//38 25//38
f 22//39 30//39 31//39
f 19//40 65//40 28//40
f 30//41 40//41 31//41
f 28//42 65//42 37//42
f 34//43 44//43 35//43
f 31//44 41//44 32//44
f 29//45 37//45 38//45
f 35//46 45//46 36//46
f 32//47 42//47 33//47
f 30//48 38//48 39//48
f 64//49 36//49 45//49
f 33//50 43//50 34//50
f 42//51 52//51 43//51
f 39//52 49//52 40//52
f 37//53 65//53 46//53
f 43//54 53//54 44//54
f 40//55 50//55 41//55
f 37//56 47//56 38//56
f 44//57 54//57 45//57
f 41//58 51//58 42//58
f 38//59 48//59 39//59
f 64//60 45//60 54//60
f 47//61 57//61 48//61
f 64//62 54//62 63//62
f 51//63 61//63 52//63
f 49//64 57//64 58//64
f 46//65 65//65 55//65
f 52//66 62//66 53//66
f 49//67 59//67 50//67
f 46//68 56//68 47//68
f 54//69 62//69 63//69
f 51//70 59//70 60//70
f 63//71 73//71 74//71
f 59//72 71//72 60//72
f 56//73 68//73 57//73
f 64//74 63//74 74//74
f 60//75 72//75 61//75
f 57//76 69//76 58//76
f 55//77 65//77 66//77
f 61//78 73//78 62//78
f 59//79 69//79 70//79
f 55//80 67//80 56//80
f 69//81 79//81 70//81
f 66//82 76//82 67//82
f 74//83 82//83 83//83
f 70//84 80//84 71//84
f 67//85 77//85 68//85
f 64//86 74//86 83//86
f 71//87 81//87 72//87
f 69//88 77//88 78//88
f 66//89 65//89 75//89
f 72//90 82//90 73//90
f 75//91 65//91 84//91
f 81//92 91//92 82//92
f 78//93 88//93 79//93
f 75//94 85//94 76//94
f 83//95 91//95 92//95
f 79//96 89//96 80//96
f 76//97 86//97 77//97
f 64//98 83//98 92//98
f 80//99 90//99 81//99
f 78//100 86//100 87//100
f 87//101 95//101 96//101
f 84//102 65//102 93//102
f 90//103 100//103 91//103
f 87//104 97//104 88//104
f 84//105 94//105 85//105
f 92//106 100//106 101//106
f 89//107 97//107 98//107
f 85//108 95//108 86//108
f 64//109 92//109 101//109
f 89//110 99//110 90//110
f 100//1 8//1 9//1
f 98//2 97//2 5//2
f 95//3 94//3 2//3
f 98//5 6//5 7//5
f 96//6 95//6 3//6
f 99//8 7//8 8//8
f 97//9 96//9 4//9
f 94//10 93//10 1//10
f 5//11 14//11 15//11
f 2//12 11//12 12//12
f 7//14 6//14 15//14
f 3//15 12//15 13//15
f 7//17 16//17 17//17
f 4//18 13//18 14//18
f 1//19 10//19 11//19
f 9//20 8//20 17//20
f 11//21 10//21 19//21
f 17//22 26//22 27//22
f 14//23 23//23 24//23
f 11//24 20//24 21//24
f 16//26 15//26 24//26
f 13//27 12//27 21//27
f 16//29 25//29 26//29
f 13//30 22//30 23//30
f 25//31 34//31 35//31
f 23//32 22//32 31//32
f 19//33 28//33 29//33
f 26//34 35//34 36//34
f 23//35 32//35 33//35
f 21//36 20//36 29//36
f 24//38 33//38 34//38
f 22//39 21//39 30//39
f 30//41 39//41 40//41
f 34//43 43//43 44//43
f 31//44 40//44 41//44
f 29//45 28//45 37//45
f 35//46 44//46 45//46
f 32//47 41//47 42//47
f 30//48 29//48 38//48
f 33//50 42//50 43//50
f 42//51 51//51 52//51
f 39//52 48//52 49//52
f 43//54 52//54 53//54
f 40//55 49//55 50//55
f 37//56 46//56 47//56
f 44//57 53//57 54//57
f 41//58 50//58 51//58
f 38//59 47//59 48//59
f 47//61 56//61 57//61
f 51//63 60//63 61//63
f 49//64 48//64 57//64
f 52//66 61//66 62//66
f 49//67 58//67 59//67
f 46//68 55//68 56//68
f 54//69 53//69 62//69
f 51//70 50//70 59//70
f 63//71 62//71 73//71
f 59//72 70//72 71//72
f 56//73 67//73 68//73
f 60//75 71//75 72//75
f 57//76 68//76 69//76
f 61//78 72//78 73//78
f 59//79 58//79 69//79
f 55//80 66//80 67//80
f 69//81 78//81 79//81
f 66//82 75//82 76//82
f 74//83 73//83 82//83
f 70//84 79//84 80//84
f 67//85 76//85 77//85
f 71//87 80//87 81//87
f 69//88 68//88 77//88
f 72//90 81//90 82//90
f 81//92 90//92 91//92
f 78//93 87//93 88//93
f 75//94 84//94 85//94
f 83//95 82//95 91//95
f 79//96 88//96 89//96
f 76//97 85//97 86//97
f 80//99 89//99 90//99
f 78//100 77//100 86//100
f 87//101 86//101 95//101
f 90//103 99//103 100//103
f 87//104 96//104 97//104
f 84//105 93//105 94//105
f 92//106 91//106 100//106
f 89//107 88//107 97//107
f 85//108 94//108 95//108
f 89//110 98//110 99//110
